<svg width="2893" height="4635" viewBox="0 0 2893 4635" fill="none" xmlns="http://www.w3.org/2000/svg">
<path d="M994.416 3100.93C993.608 3101.63 992.823 3102.33 992.016 3103.03C992.016 3103.03 992.861 3102.3 994.416 3100.93Z" fill="#1EA0D9"/>
<path d="M659.376 732.895C665.829 731.789 668.379 730.047 667.863 723.392C667.295 716.095 666.412 708.812 665.672 701.529C665.313 700.408 664.947 699.286 664.588 698.165C662.06 685.745 659.436 685.461 652.041 687.577C641.445 690.605 639.636 690.119 632.607 679.868C625.287 669.184 611.648 666.454 601 673.632V688.13C601.733 688.13 602.466 688.13 603.206 688.13C604.993 695.099 607.072 702.008 608.47 709.051C609.547 714.472 613.106 716.588 617.734 718.136C620.434 719.033 623.275 720.02 625.511 721.687C635.59 729.202 645.872 735.206 659.376 732.895Z" fill="#1EA0D9"/>
<path d="M2154.81 2138.81C2154.14 2137.8 2153.47 2136.8 2152.8 2135.8C2152.13 2129.46 2151.46 2123.13 2150.8 2116.79C2150.47 2116.12 2150.15 2115.45 2149.82 2114.78C2149.48 2112.78 2149.14 2110.78 2148.8 2108.79C2148.47 2107.79 2148.14 2106.78 2147.81 2105.78C2147.47 2104.12 2147.12 2102.45 2146.78 2100.79C2146.45 2100.12 2146.14 2099.45 2145.82 2098.78C2144.14 2094.78 2142.46 2090.77 2140.79 2086.77C2140.87 2082.82 2140.4 2079.16 2135.83 2077.76C2134.48 2071.1 2133.13 2064.42 2131.78 2057.75C2131.46 2057.08 2131.13 2056.42 2130.81 2055.75C2129.46 2049.41 2128.11 2043.08 2126.76 2036.75C2126.44 2036.08 2126.12 2035.41 2125.8 2034.74C2125.79 2034.07 2125.78 2033.41 2125.77 2032.74C2125.45 2032.07 2125.13 2031.4 2124.81 2030.73C2124.14 2027.73 2123.46 2024.73 2122.79 2021.73C2122.13 2019.72 2121.47 2017.72 2120.81 2015.72L2116.77 2000.72C2116.45 2000.05 2116.13 1999.37 2115.81 1998.7C2115.46 1995.71 2115.11 1992.71 2114.77 1989.71C2117.88 1987.39 2117.57 1985.71 2113.82 1984.69C2113.8 1982.69 2113.79 1980.69 2113.78 1978.69C2113.45 1977.69 2113.13 1976.69 2112.82 1975.68C2112.14 1971.35 2111.45 1967.01 2110.78 1962.68C2110.45 1962.01 2110.13 1961.34 2109.81 1960.67C2109.8 1960 2109.78 1959.34 2109.78 1958.67C2109.45 1958 2109.13 1957.33 2108.82 1956.66C2106.61 1949.91 2104.4 1943.16 2102.2 1936.4C2100.06 1929.81 2097.92 1923.23 2095.78 1916.64C2095.45 1915.97 2095.12 1915.3 2094.8 1914.63C2094.45 1913.64 2094.11 1912.64 2093.76 1911.65C2092.43 1908.98 2091.09 1906.31 2089.76 1903.64C2088.77 1901.97 2087.77 1900.3 2086.78 1898.63C2086.44 1897.96 2086.11 1897.29 2085.77 1896.63C2084.77 1894.96 2083.77 1893.31 2082.77 1891.64C2082.1 1890.64 2081.44 1889.63 2080.77 1888.62C2080.1 1887.62 2079.44 1886.63 2078.78 1885.63C2078.1 1884.63 2077.43 1883.62 2076.76 1882.62C2073.43 1877.96 2070.09 1873.29 2066.77 1868.63C2066.1 1867.62 2065.43 1866.62 2064.76 1865.62C2064.99 1862.75 2063.68 1861.41 2060.8 1861.6C2060.78 1861.27 2060.77 1860.94 2060.76 1860.61C2060.09 1859.61 2059.42 1858.6 2058.75 1857.6C2057.75 1855.93 2056.75 1854.27 2055.75 1852.6C2054.75 1850.6 2053.75 1848.59 2052.75 1846.59C2050.08 1841.26 2047.41 1835.93 2044.75 1830.6C2044.59 1826.75 2042.58 1824.74 2038.74 1824.58C2036.41 1823.9 2034.08 1823.23 2031.75 1822.55C2030.75 1822.22 2029.75 1821.89 2028.75 1821.57C2022.41 1819.24 2016.07 1816.91 2009.73 1814.59C2006.73 1812.92 2003.73 1811.24 2000.72 1809.57L1997.71 1807.57C1995.38 1805.23 1993.05 1802.91 1990.72 1800.57C1990.05 1799.57 1989.38 1798.57 1988.71 1797.56C1983.64 1792.12 1983.74 1785.32 1983.71 1778.55C1985.56 1775.88 1984.17 1774.5 1981.72 1773.54C1981.39 1773.21 1981.06 1772.88 1980.72 1772.54C1980.15 1771.93 1979.57 1771.32 1979 1770.71C1978.58 1771.31 1978.15 1771.92 1977.73 1772.52C1975.73 1773.53 1973.73 1774.53 1971.73 1775.54C1966.5 1770.06 1961.37 1764.49 1955.99 1759.18C1954.66 1757.87 1952.51 1757.38 1950.74 1756.52C1949.72 1752.18 1948.7 1747.85 1947.69 1743.52C1951.47 1740.87 1950.53 1738.95 1946.74 1737.5C1946.68 1727.78 1947.96 1725.68 1954.71 1724.46C1955.2 1724.63 1955.7 1724.81 1956.2 1724.97C1956.04 1724.48 1955.87 1723.98 1955.71 1723.48C1956.38 1722.82 1957.05 1722.16 1957.72 1721.48C1958.56 1721.24 1959.39 1721 1960.22 1720.75C1959.73 1720.32 1959.23 1719.9 1958.73 1719.48C1956.95 1717.1 1955.59 1713.3 1953.3 1712.63C1948.38 1711.17 1947.15 1707.58 1945.23 1703.77C1941.69 1696.77 1941.52 1693.28 1933.7 1700.46C1932.38 1699.8 1931.06 1699.12 1929.73 1698.46C1930.39 1695.79 1931.04 1693.12 1931.7 1690.46C1933.37 1687.12 1935.02 1683.78 1936.69 1680.43C1937.35 1679.44 1938.02 1678.44 1938.69 1677.44C1938.69 1676.1 1938.77 1674.77 1938.69 1673.44C1938.34 1667.17 1935.65 1665.7 1929.99 1668.25C1925.36 1670.34 1920.55 1672.01 1915.65 1673.93C1914.45 1671.3 1913.56 1669.38 1912.68 1667.45C1912.74 1664.05 1911.08 1662.38 1907.68 1662.44C1901.72 1659.46 1895.17 1656.9 1892.29 1650.39C1888.68 1642.24 1885.26 1633.91 1882.87 1625.34C1881.33 1619.78 1882.58 1613.44 1881.15 1607.81C1877.74 1594.32 1873.59 1581 1869.45 1567.7C1868.83 1565.71 1866.72 1562.81 1865.19 1562.74C1860.8 1562.55 1860.71 1559.55 1859.94 1556.76C1859.55 1555.34 1859.54 1553.79 1859.02 1552.42C1855.59 1543.45 1851.4 1534.72 1848.73 1525.53C1848.59 1525.02 1848.46 1524.49 1848.31 1523.98C1984.86 1044.85 1903.8 678.842 1878.04 584.62C1899.54 585.908 1917.04 586.398 1917.8 584.64C1919.81 579.978 1906.02 548.448 1897.9 541.86C1891.26 536.479 1824.73 514.797 1800.53 507.022C1790.21 456.426 1771.08 389.447 1746 320.785C1819.44 324.656 1961.47 332.129 1973.6 332.766C1990.01 333.632 2066.43 375.587 2069.34 370.549C2072.25 365.511 2020.25 264.802 2002.74 259.924C1996.2 258.106 1949.61 247.426 1893.79 234.761L1877.71 193.563C1874.06 184.205 1863.52 179.582 1854.17 183.232L1848.24 185.546C1838.88 189.196 1834.26 199.735 1837.91 209.093L1843.48 223.363C1826.92 219.619 1810.34 215.876 1794.44 212.293L1777.29 168.352C1773.64 159 1763.1 154.371 1753.74 158.028L1747.81 160.342C1738.46 163.992 1733.84 174.537 1737.49 183.889L1744.15 200.969C1723.74 196.374 1706.69 192.543 1695.37 190.001C1674.43 136.332 1669.81 124.498 1654.58 85.481C1633.09 30.3967 1586.83 -5.54791 1566.85 0.704495C1566.85 0.697786 1566.84 0.684369 1566.84 0.677661C1566.7 0.731329 1566.56 0.791707 1566.42 0.852084C1566.28 0.899044 1566.13 0.952713 1565.99 1.00638C1565.99 1.01309 1566 1.02651 1566.01 1.03992C1547.07 9.96235 1537.39 67.7367 1558.89 122.828C1574.11 161.838 1578.73 173.679 1599.68 227.341C1593.08 236.874 1583.13 251.244 1571.23 268.451L1564.56 251.371C1560.91 242.012 1550.37 237.397 1541.02 241.04L1535.08 243.354C1525.73 247.004 1521.11 257.543 1524.76 266.901L1541.91 310.843C1532.64 324.26 1522.98 338.234 1513.33 352.208L1507.76 337.939C1504.11 328.587 1493.56 323.958 1484.21 327.614L1478.29 329.929C1468.94 333.578 1464.31 344.117 1467.96 353.476L1484.04 394.666C1451.56 441.788 1424.52 481.201 1420.94 486.97C1411.36 502.42 1441.33 611.723 1446.88 613.454C1452.44 615.191 1480.23 532.575 1491.73 520.815C1500.21 512.134 1599.63 410.438 1651.04 357.85C1679.09 425.352 1710.39 487.58 1737.07 531.79C1724.54 553.895 1690.28 614.916 1689.04 623.362C1687.52 633.707 1698.74 666.244 1703.38 668.31C1705.3 669.169 1720.33 654.255 1737.22 636.551C1885.1 1200.01 1740.97 1698.23 1541.44 2072.61C1541.57 2071.65 1541.69 2070.7 1541.77 2069.75C1540.64 2071.69 1540.08 2073.67 1539.8 2075.67C1451.44 2240.91 1352.39 2381.93 1263.09 2493.61L1261.67 2494.97C1261.76 2494.99 1261.85 2495.01 1261.94 2495.04C1142.39 2644.38 1040.56 2741.02 1005.66 2772.79C1004.66 2772.69 1003.65 2772.61 1002.65 2772.51C1001.67 2773.55 1000.68 2774.61 999.707 2775.64C999.64 2775.64 999.58 2775.64 999.513 2775.63L1002.57 2772.24C1002.81 2772.26 1003.05 2772.28 1003.29 2772.3C1031.29 2742.51 1062.8 2707.52 1096.52 2667.77L1096.94 2667.3L1097.27 2666.89C1099.09 2664.74 1100.88 2662.65 1102.71 2660.47C1102.66 2660.39 1102.6 2660.3 1102.55 2660.21L1105.01 2657.09C1105.08 2657.21 1105.16 2657.34 1105.24 2657.46C1140.82 2615.09 1178.69 2567.47 1217.36 2515.02L1217.56 2514.77L1218.08 2514.05C1223.91 2506.14 1229.75 2498.14 1235.61 2490.01C1235.6 2490.01 1235.59 2490.01 1235.58 2490L1236.48 2488.76C1236.48 2488.76 1236.49 2488.76 1236.5 2488.77C1236.83 2488.3 1237.17 2487.81 1237.5 2487.35L1238.52 2485.96L1238.53 2485.9C1351.54 2328.48 1469.06 2130.68 1555 1901.37C1555.52 1899.1 1556.05 1896.83 1556.57 1894.56L1556.59 1894.55L1560.11 1885.37C1560.08 1885.69 1560.06 1886.01 1560.04 1886.33C1559.79 1887.51 1559.54 1888.69 1559.29 1889.86C1563.12 1879.47 1566.87 1868.99 1570.57 1858.46C1570.53 1858.45 1570.48 1858.46 1570.44 1858.46L1571.95 1854.54C1609.98 1745.59 1640.48 1629.88 1660.02 1508.41L1660.14 1508.39L1661.98 1496.72C1661.98 1496.72 1661.98 1496.71 1661.98 1496.7L1662.7 1492.15C1678.55 1387.83 1686.15 1279.27 1683.26 1167.08C1682.27 1163.64 1681.33 1160.23 1679.64 1157.25C1677.36 1153.25 1676.43 1147.42 1670.17 1146.83C1667.14 1144.9 1664.11 1142.97 1662.06 1141.66C1657.54 1142.14 1657.72 1149.48 1652.03 1146.32C1648.85 1144.54 1644.24 1144.91 1642.1 1139.79H1653.18C1653.91 1140.26 1655.18 1141.23 1655.29 1141.12C1656.33 1140 1657.6 1138.78 1657.88 1137.41C1658.02 1136.76 1656.16 1135.7 1655.21 1134.82C1654.87 1134.15 1654.53 1133.48 1654.19 1132.81C1652.85 1131.15 1651.5 1129.49 1650.16 1127.82C1649.16 1125.5 1648.16 1123.17 1647.16 1120.84C1646.5 1119.83 1645.84 1118.81 1645.18 1117.8C1643.51 1113.8 1641.84 1109.8 1640.17 1105.8L1639.17 1103.8C1636.17 1097.46 1633.16 1091.12 1630.16 1084.79C1629.83 1084.12 1629.49 1083.45 1629.16 1082.79C1625.45 1079.83 1624.51 1073.5 1618.17 1073.76C1617.42 1073.12 1616.74 1072.22 1615.87 1071.97C1615.5 1071.87 1614.75 1073.14 1614.17 1073.78C1613.17 1075.66 1612.16 1077.53 1611.16 1079.41C1607.33 1074.74 1606.12 1070.2 1603.5 1069.13C1592.49 1064.66 1588.92 1053.91 1582.42 1045.72C1579.9 1042.54 1578.99 1038.13 1576.86 1034.58C1573.37 1028.78 1571.62 1021.34 1563.46 1019.53C1562.48 1019.32 1561.61 1017.5 1561.14 1016.25C1559.69 1012.45 1559.13 1008.13 1557 1004.79C1551.74 996.595 1543.57 993.978 1534.15 994.71C1533.6 995.944 1532.49 997.239 1532.62 998.399C1533.28 1004.53 1534.26 1010.62 1535.13 1016.73C1533.8 1018.38 1532.46 1020.04 1531.13 1021.69C1530.87 1021.17 1530.61 1020.67 1530.35 1020.15C1529.94 1020.67 1529.53 1021.18 1529.12 1021.7C1528.12 1022.05 1527.13 1022.38 1526.13 1022.72C1523.24 1022.51 1521.9 1023.84 1522.12 1026.74C1521.12 1027.41 1520.1 1028.08 1519.1 1028.75C1516.61 1026.76 1513.93 1024.97 1511.68 1022.74C1508.2 1019.28 1510.13 1014.64 1509.43 1010.56C1508.93 1007.65 1509.56 1006.34 1512.4 1005.42C1516.76 1004.02 1519.6 998.171 1516.68 994.998C1512.15 990.061 1513.37 984.224 1511.94 978.817C1511.66 977.784 1509.62 976.536 1508.42 976.563C1503.98 976.664 1499.55 977.254 1495.12 977.663C1494.72 976.456 1494.6 975.047 1493.88 974.081C1489.65 968.396 1489.49 962.629 1493.4 956.779C1494.31 955.417 1495.2 954.035 1496.09 952.667C1496.42 952.338 1496.76 952.003 1497.09 951.674C1501.13 954.217 1505.22 956.685 1509.22 959.315C1515.52 963.461 1521.75 967.714 1528.02 971.921C1528.37 965.95 1525.42 962.28 1522.07 958.678C1518.05 954.357 1514.15 949.91 1510.6 945.207C1509.85 944.214 1510.6 941.786 1511.16 940.202C1511.57 939.062 1512.83 938.23 1513.83 937.123C1513.13 936.385 1512.66 935.667 1512 935.225C1505.36 930.763 1500.56 924.558 1496.96 917.675C1494.55 913.066 1493.64 907.672 1492.07 902.634C1491.42 901.313 1490.98 899.837 1490.09 898.703C1488.93 897.207 1487.43 895.973 1486.08 894.624C1488.99 891.263 1488.52 887.701 1486.51 884.199C1485.19 881.911 1483.56 879.805 1482.07 877.618C1478.37 865.361 1474.71 853.091 1470.87 840.868C1470.57 839.909 1469.04 839.332 1468.07 838.574C1466.88 825.828 1459.14 816.348 1452.08 806.534C1451.41 805.534 1450.73 804.535 1450.06 803.528C1449.39 802.529 1448.73 801.529 1448.06 800.523C1447.39 799.517 1446.72 798.51 1446.05 797.511C1445.72 796.846 1445.39 796.189 1445.05 795.532C1444.39 794.525 1443.72 793.519 1443.05 792.506C1441.39 790.178 1440.21 786.784 1437.95 785.744C1432.72 783.335 1431.22 779.733 1432.02 774.514C1431.03 773.514 1430.03 772.514 1429.04 771.522C1428.05 771.508 1427.06 771.495 1426.09 771.475C1424.98 766.638 1420.17 766.041 1417.03 763.538L1414.02 761.506C1411.02 756.836 1408.02 752.161 1405.03 747.491C1400.48 741.058 1398.28 732.887 1390.98 728.486C1390.66 727.815 1390.33 727.144 1390.01 726.473C1389.68 726.145 1389.35 725.816 1389.02 725.487C1388.02 725.487 1387.01 725.474 1386.01 725.474C1385 724.139 1383.99 722.804 1382.97 721.475C1382.89 718.826 1382.62 716.33 1379.01 716.484C1378.33 715.813 1377.65 715.143 1376.97 714.472C1375.98 713.137 1374.99 711.795 1374 710.46C1372.66 708.796 1371.32 707.126 1369.97 705.462C1368.98 704.456 1367.99 703.449 1367 702.443C1365.76 701.37 1364.09 700.531 1363.36 699.183C1359.57 692.219 1352.58 691.253 1345.99 689.435C1345.65 688.771 1345.31 688.107 1344.97 687.443C1344.12 685.759 1343.68 683.565 1342.34 682.485C1339.46 680.164 1336.13 678.406 1332.98 676.421L1327.97 671.416C1326.97 670.423 1325.96 669.424 1324.96 668.431C1323.63 667.096 1322.3 665.767 1320.96 664.432C1318.95 662.212 1317.29 659.421 1314.86 657.871C1305.36 651.834 1295.61 646.185 1285.96 640.395C1281.45 636.518 1277.05 632.506 1272.4 628.81C1269.79 626.737 1266.77 625.18 1263.93 623.396C1262.6 622.054 1261.27 620.719 1259.93 619.377C1258.93 618.727 1257.93 618.069 1256.93 617.419C1255.59 616.07 1254.26 614.722 1252.93 613.373C1251.92 612.716 1250.92 612.058 1249.92 611.401C1248.25 609.724 1246.59 608.047 1244.92 606.37C1243.92 605.719 1242.91 605.061 1241.91 604.411C1240.25 602.405 1238.58 600.399 1236.91 598.393C1235.91 598.393 1234.91 598.386 1233.91 598.38C1232.57 596.709 1231.25 595.032 1229.91 593.362C1228.9 592.704 1227.9 592.047 1226.9 591.389L1213.9 580.394C1213.23 580.052 1212.56 579.71 1211.9 579.361C1208.64 576.993 1205.4 574.591 1202.1 572.263C1200.63 571.223 1199.04 570.344 1197.51 569.385C1190.28 564.857 1182.75 560.738 1175.93 555.653C1171.38 552.265 1167.86 547.502 1163.87 543.349C1162.87 543.349 1161.87 543.342 1160.87 543.336C1159.2 541.336 1157.53 539.344 1155.87 537.345C1154.87 537.345 1153.87 537.338 1152.86 537.331C1151.2 535.003 1149.53 532.669 1147.87 530.341C1146.87 530.341 1145.86 530.334 1144.86 530.328C1143.87 529.321 1142.87 528.322 1141.88 527.315C1140.87 526.323 1139.86 525.33 1138.86 524.344C1137.86 523.666 1136.86 522.988 1135.86 522.304C1135.14 517.689 1132.48 515.025 1127.87 514.307C1127.15 509.699 1124.48 507.029 1119.87 506.304C1115.19 500.293 1110.18 494.51 1105.91 488.224C1092.47 468.474 1079.32 448.53 1066.05 428.666C1062.41 423.212 1058.08 418.844 1050.82 419.213C1048.25 416.443 1046.41 416.443 1043.82 419.207H1028.81C1028.22 418.569 1027.46 417.321 1027.08 417.429C1026.22 417.664 1025.56 418.576 1024.81 419.213C1023.81 419.227 1022.81 419.24 1021.81 419.247C1021.14 419.247 1020.47 419.247 1019.81 419.253C1012.47 418.576 1005.13 417.898 997.795 417.221C997.795 416.557 997.795 415.892 997.795 415.228H982.787C982.787 415.899 982.787 416.57 982.787 417.241C981.781 419.904 980.775 422.568 979.762 425.238C978.762 426.244 977.769 427.25 976.769 428.263C971.771 427.928 966.773 427.592 961.768 427.257C960.769 427.257 959.769 427.27 958.769 427.27C957.77 427.27 956.763 427.27 955.764 427.27C954.429 427.27 953.094 427.257 951.765 427.25C949.853 426.78 947.935 426.324 946.022 425.841C941.273 424.634 936.516 423.419 931.766 422.205C930.096 421.883 928.425 421.561 926.754 421.246C926.419 421.232 926.084 421.219 925.755 421.212C923.326 416.838 914.947 416.838 911.747 421.212C911.411 421.226 911.076 421.239 910.747 421.246C909.741 421.561 908.734 421.883 907.728 422.199C901.214 423.124 894.418 423.171 888.245 425.164C877.062 428.78 865.985 431.738 854.117 430.276C852.541 430.081 850.897 430.41 848.696 430.531V438.246C842.645 439.648 838.298 443.431 834.715 448.282C834.386 448.61 834.057 448.939 833.729 449.268C832.722 449.939 831.716 450.616 830.716 451.287C830.716 451.616 830.716 451.944 830.716 452.28C830.052 452.609 829.388 452.937 828.724 453.266L822.693 452.28C822.028 451.944 821.371 451.609 820.707 451.274C818.573 452.233 816.084 452.776 814.374 454.239C809.845 458.089 805.169 458.968 799.312 457.62C795.864 456.828 791.094 455.044 788.678 460.276C788.041 460.86 786.786 461.618 786.894 462.001C787.135 462.859 788.041 463.53 788.678 464.282C791.422 473.439 794.508 482.609 787.706 490.814C790.745 493.283 793.227 495.289 795.709 497.301C795.374 497.965 795.038 498.63 794.696 499.294C793.361 499.307 792.026 499.314 790.698 499.327H787.692C785.686 500.649 783.674 501.97 781.668 503.292C777.951 505.989 778.924 507.901 782.681 509.343C783.365 510.336 784.056 511.329 784.74 512.322C784.398 513.992 784.049 515.656 783.707 517.326C784.036 518.943 784.485 520.54 784.68 522.17C785.411 528.154 787.612 530.2 793.65 530.361C794.669 533.024 795.696 535.681 796.716 538.344C796.702 539.009 796.689 539.679 796.682 540.344C795.032 540.344 793.375 540.344 791.724 540.344C790.711 540.223 789.275 539.606 788.752 540.055C783.828 544.275 782.815 545.261 789.698 550.353C789.712 551.024 789.725 551.688 789.745 552.359C789.732 553.358 789.712 554.358 789.698 555.357C786.364 557.028 783.023 558.705 779.688 560.375C778.347 561.368 777.005 562.368 775.67 563.361C774.355 563.361 773.04 563.361 771.725 563.361C770.712 562.703 769.699 562.039 768.686 561.382C765.7 559.892 762.668 558.49 759.756 556.874C757.965 555.881 756.362 554.546 754.678 553.358C753.92 552.734 753.155 552.104 752.397 551.48C751.833 552.312 750.907 553.09 750.78 553.989C750.518 555.746 750.699 557.565 750.699 559.362C750.686 560.027 750.672 560.697 750.666 561.362C750.149 561.771 749.633 562.18 749.116 562.589C749.633 562.851 750.142 563.106 750.659 563.361C748.787 566.447 746.915 569.526 745.037 572.612C744.742 572.437 744.447 572.256 744.151 572.082C744.319 573.846 744.494 575.611 744.661 577.375C744.145 577.63 743.628 577.891 743.118 578.146C743.635 578.556 744.151 578.965 744.668 579.374C744.742 586.787 744.762 586.606 751.907 587.505C753.792 587.74 755.798 589.122 757.234 590.51C764.285 597.333 772.416 599.144 781.708 596.38C783.707 595.381 785.7 594.381 787.699 593.388C787.712 592.06 787.726 590.725 787.732 589.397C788.39 587.619 789.175 585.875 789.685 584.057C790.765 580.186 791.704 576.268 792.697 572.377C792.704 571.713 792.71 571.042 792.717 570.378C792.717 568.372 792.717 566.373 792.724 564.367C792.382 563.032 792.046 561.697 791.704 560.369C791.704 560.04 791.704 559.705 791.711 559.369C792.375 559.034 793.046 558.698 793.71 558.363C798.903 556.941 798.842 552.379 799.694 548.354C799.708 548.018 799.721 547.689 799.735 547.354C801.05 547.354 802.365 547.354 803.673 547.354C804.028 548.018 804.384 548.689 804.74 549.353C805.719 550.359 806.699 551.359 807.685 552.365C808.356 553.7 809.027 555.035 809.697 556.364C811.032 558.363 812.368 560.369 813.703 562.368C816.494 566.185 821.794 566.628 825.732 563.367C827.402 561.04 829.066 558.712 830.737 556.384C832.4 555.049 834.071 553.714 835.735 552.379C837.063 552.379 838.391 552.365 839.72 552.359L850.722 557.383C852.393 558.383 854.057 559.376 855.727 560.375C856.391 560.711 857.062 561.046 857.727 561.388C859.39 562.388 861.061 563.394 862.725 564.394C863.355 565.675 864.791 567.218 864.476 568.184C863.12 572.317 865.925 572.934 868.615 573.806C870.319 574.356 872.037 574.866 873.747 575.389C876.324 578.16 878.169 578.16 880.758 575.389L880.745 575.356C881.751 575.034 882.751 574.712 883.757 574.383C884.421 574.376 885.085 574.363 885.75 574.356C886.421 574.034 887.091 573.712 887.762 573.397L891.747 571.351C895.947 569.419 894.511 565.608 894.74 562.354L894.773 562.368C900.395 560.463 896.987 556.572 896.752 553.372C909.043 553.372 921.334 553.211 933.611 553.452C936.845 553.519 940.052 554.834 943.265 555.579L939.797 565.373C939.119 565.709 938.441 566.044 937.764 566.386C933.765 566.058 929.767 565.722 925.768 565.393C924.755 566.715 923.749 568.037 922.736 569.358C922.407 569.694 922.078 570.036 921.743 570.371C921.139 570.794 920.535 571.216 919.938 571.632C920.542 572.209 921.146 572.793 921.743 573.37C924.406 575.376 927.076 577.382 929.74 579.388C933.39 581.393 937.059 583.366 940.682 585.405C944.734 587.686 948.753 590.034 952.785 592.355C954.449 593.697 956.113 595.039 957.776 596.38C957.562 599.252 958.89 600.587 961.762 600.392L961.795 600.379C962.124 601.043 962.453 601.707 962.781 602.378C962.721 605.786 964.391 607.456 967.8 607.383C968.128 607.383 968.45 607.376 968.779 607.362C973.106 608.711 977.427 610.059 981.754 611.408C981.761 611.743 981.768 612.078 981.781 612.414C981.586 615.292 982.935 616.614 985.806 616.392C986.135 616.392 986.464 616.392 986.793 616.392C987.993 617.761 989.013 619.371 990.429 620.464C994.763 623.805 996.078 627.985 995.923 633.452C995.534 646.775 995.789 660.112 995.782 673.449C994.79 674.126 993.797 674.797 992.804 675.475C992.139 675.81 991.475 676.146 990.811 676.481C990.811 676.81 990.798 677.132 990.791 677.46C990.804 678.306 990.704 679.044 990.503 679.674C990.704 679.044 990.798 678.306 990.791 677.46C990.791 677.132 990.804 676.81 990.811 676.481C986.524 676.038 985.39 677.172 985.813 681.465C985.8 681.794 985.793 682.13 985.793 682.458C982.412 688.778 977.823 692.4 970.188 689.791C968.839 689.328 967.256 689.569 965.78 689.489C964.116 689.489 962.446 689.489 960.782 689.489C958.783 689.824 956.777 690.16 954.778 690.495C954.113 690.817 953.443 691.139 952.778 691.468C949.229 695.949 945.244 699.974 939.481 701.336C930.31 703.496 925.882 709.514 924.789 718.49C924.44 719.49 924.091 720.489 923.742 721.489C923.756 724.494 923.769 727.5 923.782 730.499C923.782 731.498 923.776 732.498 923.769 733.497C923.44 737.502 923.112 741.507 922.783 745.506C922.783 746.841 922.769 748.176 922.763 749.504C922.749 750.168 922.743 750.839 922.729 751.503C922.125 751.926 921.522 752.355 920.924 752.778C921.535 753.355 922.145 753.925 922.756 754.502L926.734 755.501C928.74 756.166 930.746 756.83 932.752 757.501L934.745 757.527C936.093 757.796 937.435 758.239 938.797 758.306C942.104 758.473 945.419 758.46 948.733 758.52C950.075 759.842 951.423 761.17 952.765 762.492C954.422 763.834 956.086 765.182 957.743 766.524C959.085 767.852 960.426 769.174 961.768 770.502C962.432 770.844 963.09 771.179 963.754 771.522C964.754 772.528 965.753 773.534 966.753 774.547C966.424 776.54 966.096 778.532 965.76 780.524C965.431 781.195 965.103 781.859 964.767 782.53C963.768 786.864 962.775 791.205 961.775 795.538C961.782 796.538 961.788 797.537 961.795 798.537C961.788 802.542 961.782 806.547 961.768 810.545C962.432 811.545 963.097 812.545 963.768 813.544C963.761 815.215 963.754 816.885 963.747 818.555C964.412 819.562 965.076 820.561 965.74 821.568C965.74 823.231 965.74 824.895 965.74 826.559C961.802 828.799 964.009 831.785 964.781 834.589C964.116 836.581 963.452 838.574 962.788 840.573C963.117 841.237 963.445 841.908 963.768 842.572C963.432 843.243 963.097 843.921 962.761 844.592C961.433 846.919 960.111 849.247 958.783 851.582C954.207 861.631 948.894 871.479 950.517 881.16C945.432 884.924 941.588 887.768 937.744 890.619C937.073 895.952 936.402 901.292 935.724 906.626L933.718 926.644C929.492 929.697 929.492 933.333 933.712 935.647C933.712 936.311 933.712 936.976 933.712 937.64C933.383 938.646 933.061 939.652 932.732 940.652C932.403 941.323 932.068 941.987 931.732 942.658C930.404 944.657 929.069 946.656 927.741 948.662C927.721 948.984 927.714 949.313 927.714 949.635C926.258 950.976 924.561 952.144 923.387 953.7C918.409 960.288 913.585 966.996 908.701 973.665C906.708 973.665 904.716 973.671 902.723 973.678C899.281 971.256 897.161 974.175 894.699 975.677C893.7 976.341 892.693 977.006 891.694 977.67C890.023 979.005 888.359 980.347 886.689 981.682C881.899 984.506 880.805 989.47 880.879 994.166C880.986 1000.71 879.832 1006.33 874.667 1010.68C872.674 1010.69 870.681 1010.7 868.689 1010.71C860.397 1006.52 860.061 1006.62 855.164 1013.86C853.788 1015.89 852.198 1017.77 850.709 1019.73C849.696 1020.07 848.683 1020.41 847.67 1020.75C846.341 1020.41 845.013 1020.07 843.678 1019.73C841.343 1020.06 839.009 1020.4 836.674 1020.73C836.003 1021.05 835.332 1021.37 834.668 1021.7C832.675 1022.36 830.676 1023.03 828.684 1023.69C827.013 1022.36 825.343 1021.03 823.672 1019.71C822.015 1018.04 820.351 1016.38 818.694 1014.71C817.486 1012.88 816.279 1011.05 814.4 1008.21C817.654 1006.6 820.942 1005.28 823.873 1003.42C826.342 1001.85 830.146 999.721 830.233 997.708C830.347 994.844 827.919 991.617 825.953 989.021C824.873 987.592 822.337 987.37 820.767 986.19C816.547 983.023 812.495 979.635 808.369 976.335C808.792 975.57 809.221 974.805 809.644 974.04C813.401 975.295 817.205 976.435 820.908 977.831C826.704 980.011 831.347 978.991 835.057 973.692C827.328 967.077 819.499 960.368 811.67 953.666L808.658 950.681C807.329 949.675 805.994 948.675 804.666 947.669C803.659 946.669 802.653 945.677 801.653 944.677C791.208 937.049 780.762 929.415 770.309 921.794C764.707 917.708 757.784 915.864 751.88 918.171C745.426 920.7 741.038 918.674 736.899 915.193C730.734 910.007 724.098 909.041 716.43 910.061C711.942 910.658 707.226 910.014 702.67 909.47C696.619 908.752 690.628 907.585 684.61 906.612C684.348 906.096 684.093 905.586 683.838 905.069C683.429 905.586 683.02 906.103 682.611 906.619C671.293 908.538 665.865 915.495 669.32 923.914C670.823 927.577 672.493 931.26 674.728 934.5C675.814 936.077 678.31 937.398 680.256 937.532C686.019 937.928 691.829 937.68 697.625 937.687C698.296 938.009 698.967 938.331 699.631 938.653C701.838 939.263 704.153 939.625 706.233 940.538C715.343 944.529 724.212 949.152 733.518 952.607C740.227 955.095 746.177 958.027 751.102 963.401C753.309 965.802 756.778 967.835 759.958 968.385C766.016 969.425 769.612 972.705 771.343 978.133C774.999 989.625 783.117 996.722 793.589 1001.7C796.447 1003.06 799.547 1004.15 802.016 1006.04C804.82 1008.19 808.201 1010.7 809.261 1013.76C810.825 1018.3 813.018 1021.07 817.439 1022.91C825.416 1026.24 826.49 1032.24 820.62 1038.34C820.163 1038.82 819.741 1039.33 819.083 1040.07C821.619 1044.76 823.571 1049.87 829.301 1053.34C830.213 1048.12 827.952 1042.2 834.702 1040.75C835.372 1040.09 836.043 1039.42 836.714 1038.75C837.043 1037.75 837.372 1036.75 837.7 1035.75C837.372 1034.75 837.043 1033.75 836.714 1032.75C836.385 1031.41 836.063 1030.08 835.735 1028.74C837.063 1028.41 838.398 1028.07 839.727 1027.74C840.391 1027.74 841.062 1027.73 841.726 1027.72L841.712 1027.76C842.383 1029.09 843.054 1030.42 843.725 1031.75C843.718 1032.42 843.712 1033.08 843.705 1033.75L842.155 1034.97C842.665 1035.24 843.182 1035.49 843.691 1035.75C841.363 1041.41 839.035 1047.08 836.707 1052.74C835.386 1054.09 834.064 1055.43 832.743 1056.78L832.709 1056.76C832.072 1057.52 831.159 1058.18 830.918 1059.05C830.81 1059.42 832.065 1060.19 832.702 1060.77C834.031 1062.77 835.366 1064.78 836.694 1066.79C837.036 1067.78 837.385 1068.78 837.727 1069.77C837.741 1070.77 837.754 1071.77 837.767 1072.77C837.767 1074.11 837.768 1075.44 837.761 1076.78C837.741 1078.1 837.721 1079.44 837.707 1080.77C836.721 1082.11 835.735 1083.45 834.748 1084.79C834.748 1085.12 834.735 1085.46 834.728 1085.8C834.728 1085.46 834.742 1085.12 834.748 1084.79C834.406 1084.79 834.071 1084.79 833.729 1084.78C833.729 1083.14 833.735 1081.49 833.709 1079.84C833.642 1075.51 830.582 1070.26 828.315 1071.02C824.316 1072.36 823.343 1075.85 823.699 1079.77C820.499 1082.44 820.499 1085.11 823.699 1087.78C823.84 1092.32 826.168 1094.66 830.723 1094.78C831.045 1097.44 831.367 1100.11 831.696 1102.78C829.234 1107.84 831.79 1111.06 835.728 1113.77C836.057 1113.79 836.385 1113.79 836.714 1113.8C835.393 1116.47 834.064 1119.13 832.743 1121.8C832.743 1124.14 832.743 1126.47 832.743 1128.81C834.728 1134.48 836.721 1140.16 838.707 1145.83C839.713 1148.5 840.719 1151.16 841.726 1153.83C842.927 1156.55 844.168 1159.26 845.315 1162.02C848.636 1169.96 852.48 1177.83 849.743 1186.86C849.595 1189.93 849.394 1193 849.307 1196.07C849.213 1199.36 849.501 1202.68 849.132 1205.92C848.146 1214.6 846.905 1223.24 845.765 1231.9C845.765 1232.9 845.751 1233.9 845.751 1234.9C844.074 1239.56 842.397 1244.22 840.719 1248.88C839.733 1249.89 838.747 1250.9 837.754 1251.91C837.076 1253.24 836.399 1254.57 835.721 1255.9C835.057 1256.91 834.386 1257.91 833.722 1258.91C833.058 1260.25 832.387 1261.58 831.723 1262.91C831.065 1264.25 830.401 1265.58 829.744 1266.92C829.73 1267.58 829.717 1268.25 829.703 1268.92C829.039 1273.91 828.368 1278.92 827.697 1283.92C826.369 1285.26 825.041 1286.59 823.719 1287.94C823.048 1288.26 822.384 1288.6 821.713 1288.93C821.076 1289.09 820.385 1289.15 819.801 1289.43C813.911 1292.3 808.751 1297.15 801.412 1296.05C801.016 1295.99 800.372 1296.31 800.124 1296.65C795.495 1303.14 790.195 1309.57 789.893 1317.88C789.564 1326.81 790.289 1335.8 790.745 1344.76C791.114 1351.93 788.155 1357.18 782.359 1361.21C777.864 1364.34 775.636 1368.59 775.603 1374.34C775.502 1390.81 775.019 1407.28 774.67 1423.75C774.65 1424.74 774.382 1425.72 774.321 1426.71C773.879 1434.14 771.215 1441.89 777.589 1448.12C775.677 1450.64 773.885 1452.82 772.282 1455.13C767.941 1461.39 763.493 1467.58 759.475 1474.03C757.475 1477.24 755.892 1480.85 754.906 1484.48C753.966 1487.95 754.356 1491.77 753.557 1495.3C753.081 1497.39 751.793 1500.47 750.23 1500.93C742.897 1503.1 741.548 1507.41 745.292 1513.9C748.895 1520.15 753.759 1525.73 758.448 1531.28C762.587 1536.18 762.715 1537.41 757.677 1541.14C757.16 1541.53 756.677 1541.95 755.744 1542.71C759.119 1549.43 761.903 1556.45 765.962 1562.64C770.249 1569.18 770.86 1570.12 766.747 1576.61C760.789 1586.02 754.637 1595.3 749.002 1604.9C747.023 1608.28 744.95 1608.7 741.676 1607.72C740.287 1607.3 738.724 1607.49 737.234 1607.4C737.221 1609 736.671 1610.85 737.281 1612.17C742.38 1623.1 748.539 1633.24 758.408 1640.72C762.379 1643.73 766.432 1647.25 766.566 1652.72C766.687 1657.66 766.21 1662.68 765.365 1667.55C764.084 1674.88 762.205 1682.11 760.662 1689.4C759.26 1696.02 757.972 1702.66 756.637 1709.3C755.798 1705.63 755.603 1702.12 755.852 1698.65C756.113 1695.03 756.643 1691.41 757.354 1687.85C759.367 1677.79 755.275 1673.97 745.225 1675.36C739.442 1676.17 733.256 1675.99 727.54 1674.82C721.744 1673.63 716.068 1671.16 715.249 1663.61C714.29 1654.74 713.049 1645.89 711.566 1637.09C710.976 1633.58 711.405 1631.46 714.706 1629.35C719.758 1626.11 719.805 1623.8 716.108 1619.17C714.142 1616.7 712.096 1614.29 709.923 1612.01C705.884 1607.77 704.656 1603.05 706.387 1597.35C707.185 1594.72 707.695 1591.75 707.346 1589.07C706.595 1583.35 705.193 1577.71 704.388 1573.65C707.836 1567.16 710.64 1561.76 713.579 1556.43C714.525 1554.72 715.598 1552.96 717.007 1551.64C719.342 1549.46 721.992 1547.62 724.508 1545.63C724.219 1545.23 723.924 1544.83 723.636 1544.42C730.767 1543.79 733.524 1541.44 735.195 1533.89C729.07 1537.58 719.073 1531.97 717.396 1543.6C711.6 1534.78 711.647 1525.04 718.51 1521.22C724.065 1518.13 725.219 1513.51 726.601 1508.47C727.48 1505.27 727.808 1501.89 728.969 1498.81C730.881 1493.75 728.426 1490.96 724.233 1489.55C719.322 1487.9 718.879 1485.37 720.932 1482.22C723.488 1481.66 726.312 1481.8 726.863 1480.75C727.735 1479.08 727.097 1476.62 727.097 1474.09C724.494 1474.83 722.83 1475.3 721.234 1475.76C718.684 1472.19 719.557 1469.26 721.858 1466.38C723.099 1464.84 724.494 1463.32 725.299 1461.56C728.822 1453.85 732.008 1445.99 735.631 1438.33C737.261 1434.89 736.584 1432.32 733.524 1430.75C730.358 1429.11 727.332 1429.69 725.581 1433.29C723.904 1436.73 722.086 1440.12 720.677 1443.67C718.429 1449.33 717.544 1455.86 714.176 1460.7C705.199 1473.58 698.35 1487.17 695.518 1502.7C694.089 1510.54 691.815 1512.51 683.57 1514.18C680.168 1514.87 678.223 1517.12 678.686 1520.6C679.679 1528.13 680.517 1535.72 682.255 1543.1C683.865 1549.94 684.261 1556.21 681.477 1562.98C679.323 1568.21 677.881 1574.14 677.914 1579.76C677.948 1585.04 680.772 1590.24 681.591 1595.59C683.818 1610.14 685.401 1624.77 687.696 1639.3C689.581 1651.21 691.554 1663.16 694.593 1674.8C696.538 1682.27 701.261 1689.01 703.368 1696.46C708.5 1714.63 713.317 1732.92 717.349 1751.36C720.845 1767.35 724.957 1783.02 733.182 1797.26C740.032 1809.12 742.95 1821.81 742.642 1835.38C742.125 1835.63 741.615 1835.89 741.099 1836.15C741.615 1836.56 742.132 1836.97 742.649 1837.38C742.675 1843.98 742.581 1850.6 742.776 1857.21C742.89 1861.2 743.279 1865.21 743.836 1869.17C745.01 1877.61 746.365 1886.01 747.647 1894.43C744.494 1896.1 744.487 1897.77 747.653 1899.43C748.948 1904.82 750.236 1910.2 751.625 1915.98C750.605 1916.72 749.136 1917.8 747.66 1918.85C739.562 1924.62 735.624 1928.71 740.81 1940.22C742.991 1945.08 745.372 1949.36 739.784 1953.72C738.617 1954.63 738.986 1957.74 738.972 1959.84C738.965 1961.64 739.187 1963.51 739.717 1965.22C743.145 1976.37 740.455 1989.33 749.713 1998.79C750.8 1999.9 751.337 2001.72 751.712 2003.31C752.658 2007.32 753.41 2011.38 754.161 2015.43C756.71 2029.26 759.072 2043.11 761.803 2056.91C764.144 2068.73 766.895 2080.49 769.437 2092.28C769.927 2094.54 770.242 2096.84 770.705 2099.1C771.826 2104.59 772.953 2110.07 774.154 2115.53C775.985 2123.9 777.87 2132.25 779.735 2140.61C780.051 2141.28 780.373 2141.95 780.688 2142.63C781.024 2145.92 781.554 2149.2 781.668 2152.5C782.151 2166.61 779.111 2180.13 774.254 2193.27C773.758 2194.61 772.282 2196.2 770.987 2196.51C767.74 2197.28 766.586 2199.1 766.68 2202.19C766.747 2204.35 766.68 2206.52 766.673 2208.68C763.52 2210.35 763.513 2212.02 766.68 2213.69C768.015 2219.83 769.37 2225.96 770.692 2232.1C775.012 2252.18 779.407 2272.21 786.934 2291.45C789.061 2296.87 789.517 2302.96 790.738 2308.74C789.973 2312.19 787.699 2315.78 791.697 2318.77L790.704 2341.79C787.846 2344.5 787.84 2350.07 790.698 2352.8C789.799 2361.93 787.94 2370.64 781.493 2377.84C779.608 2379.95 778.93 2383.13 777.696 2385.82C774.925 2388.4 774.925 2390.25 777.696 2392.83C779.239 2396.27 780.641 2399.79 782.345 2403.15C787.9 2414.1 792.831 2425.22 792.751 2437.85C793.066 2438.52 793.381 2439.19 793.703 2439.87C797.212 2454.51 799.56 2469.56 804.491 2483.71C811.911 2505.01 820.881 2525.79 829.697 2546.58C834.52 2557.97 836.862 2570.59 845.65 2580.1C852.715 2601.73 859.779 2623.37 866.844 2645L870.527 2666.77C870.272 2667.19 870.017 2667.62 869.762 2668.05C866.126 2669.81 865.22 2672.76 865.724 2676.58C866.24 2680.5 866.059 2684.54 866.864 2688.38C867.729 2692.5 868.541 2697.05 870.883 2700.35C874.385 2705.28 877.129 2710.41 878.933 2715.94L880.322 2721.48C880.503 2722.43 880.765 2723.33 880.879 2724.31C880.926 2724.3 880.973 2724.28 881.02 2724.28L882.731 2731.1C882.221 2731.36 881.704 2731.62 881.194 2731.88C881.711 2732.29 882.227 2732.7 882.744 2733.11C884.274 2746.44 889.305 2758.54 895.773 2770.14C896.772 2771.14 897.772 2772.14 898.772 2773.14C899.436 2775.48 900.1 2777.81 900.764 2780.15L900.784 2784.15H900.744C900.234 2784.41 899.718 2784.67 899.208 2784.92C899.724 2785.33 900.241 2785.74 900.757 2786.15C903.099 2796.5 905.44 2806.83 907.775 2817.18C907.768 2817.84 907.755 2818.51 907.748 2819.18C904.186 2822.16 904.186 2824.2 907.748 2827.18C907.755 2829.18 907.768 2831.19 907.782 2833.19C908.687 2836.66 908.989 2840.46 910.606 2843.56C913.162 2848.49 915.752 2853.39 918.321 2858.31C939.038 2838.51 966.968 2810.86 999.935 2775.92C1000.69 2775.95 1001.43 2775.98 1002.18 2776C998.929 2778.93 996.514 2781.07 994.93 2782.47C997.413 2780.32 999.848 2778.16 1002.32 2776.01C1004.48 2776.08 1006.64 2776.16 1008.8 2776.25C1009.82 2775.28 1010.84 2774.32 1011.85 2773.35C1011.76 2773.34 1011.68 2773.36 1011.58 2773.35C1009.7 2773.2 1007.82 2773.02 1005.94 2772.84C1030.35 2751.53 1054.2 2730.2 1077.38 2708.87C1056.11 2730.36 1034.32 2751.85 1011.85 2773.34C1012.15 2773.36 1012.4 2773.32 1012.69 2773.32L1009.45 2776.03L1009.56 2776.27C1009.31 2776.26 1009.06 2776.25 1008.8 2776.24C979.661 2804.06 949.491 2831.87 918.281 2859.66C927.103 2876.54 935.993 2893.4 945.13 2910.11C949.927 2918.87 955.791 2927.05 961.164 2935.48C961.829 2935.83 962.493 2936.16 963.157 2936.5C965.103 2936.65 967.773 2936.04 968.86 2937.08C972.892 2940.95 976.367 2945.4 980.11 2949.58C983.901 2953.81 987.262 2958.63 991.697 2962.04C1002.6 2970.42 1013.9 2978.31 1025.32 2985.99C1027.58 2987.5 1031.19 2988.03 1033.95 2987.6C1043.56 2986.08 1051.42 2993.3 1050.68 3003.06C1050.57 3004.57 1052.45 3007.17 1053.97 3007.72C1062.76 3010.91 1071.53 3014.6 1080.65 3016.28C1092.45 3018.46 1104.1 3021.07 1114.23 3027.32C1125.94 3034.54 1138.74 3037.4 1151.87 3038.99C1156.6 3039.56 1161.72 3036.86 1166.67 3035.66C1170.62 3034.69 1174.71 3032.63 1178.53 3033.05C1184.28 3033.68 1188.12 3038.01 1190.13 3043.47C1194.78 3056.05 1192.39 3056.71 1209.23 3056.63C1212.18 3056.61 1215.2 3056.96 1218.06 3057.66C1219.31 3057.97 1220.24 3059.57 1221.32 3060.59C1223.99 3060.59 1226.66 3060.61 1229.33 3060.61C1238.33 3060.61 1247.33 3060.61 1256.34 3060.61C1257.34 3060.61 1258.34 3060.6 1259.34 3060.59C1259.34 3056.24 1262.62 3057.17 1264.63 3057.95C1270.11 3060.08 1275.54 3062.47 1280.68 3065.32C1285.54 3068.01 1290.28 3068.78 1294.68 3065.32C1309.12 3053.97 1326.41 3050.79 1343.74 3047.57C1349.27 3046.55 1354.81 3045.58 1360.3 3044.39C1363.4 3043.72 1365.95 3042.59 1367.35 3039.02C1369.49 3033.56 1374.86 3032.91 1379.89 3032.61C1387.81 3032.14 1387.39 3032.13 1389.88 3024.97C1392.8 3016.55 1397.44 3009.49 1408.35 3010.55C1414.02 3011.11 1417.44 3008.81 1421.02 3004.05C1429.03 2993.37 1440.27 2986.99 1453.53 2984.62C1455.05 2984.35 1456.81 2984.95 1458.38 2985.4C1462.27 2986.53 1466.06 2987.83 1469.52 2984.23C1469.94 2983.79 1471.46 2984.42 1472.47 2984.54C1473.14 2983.87 1473.81 2983.2 1474.48 2982.53C1471.77 2978.13 1475.39 2976.72 1478.2 2975.83C1485.44 2973.53 1492.79 2971.52 1500.2 2969.83C1503.75 2969.01 1504.72 2967.93 1503.97 2964.1C1502.48 2956.5 1507.63 2950.32 1515.35 2949.45C1517.49 2949.2 1519.66 2948.37 1521.7 2948.65C1523.06 2948.83 1524.23 2950.49 1525.48 2951.49H1528.48C1529.05 2947.96 1531.28 2947.82 1533.44 2949.65C1538.9 2954.29 1540.77 2954.24 1534.53 2959.98C1533.47 2960.96 1532.6 2962.13 1531.29 2963.6C1536.03 2965.51 1539.38 2963.06 1542.71 2961.33C1549.56 2957.76 1556.01 2953.28 1563.13 2950.39C1572.56 2946.56 1582.37 2943.55 1592.22 2940.93C1595.57 2940.04 1599.73 2941.16 1599.53 2946.48C1599.87 2946.49 1600.19 2946.51 1600.53 2946.52L1610.53 2946.51C1611.79 2942.41 1615.44 2942.18 1618.74 2941.52C1623.9 2940.48 1629.13 2939.71 1634.3 2938.66C1640.73 2937.36 1647.13 2935.89 1653.55 2934.49C1653.56 2934.15 1653.58 2933.82 1653.6 2933.49C1653.59 2933.15 1653.58 2932.82 1653.57 2932.49C1656.57 2931.48 1659.56 2930.48 1662.56 2929.47C1663.57 2929.15 1664.57 2928.82 1665.58 2928.5C1669.91 2927.49 1674.25 2926.48 1678.58 2925.47C1679.92 2924.8 1681.25 2924.13 1682.59 2923.47C1683.58 2922.81 1684.58 2922.13 1685.58 2921.47C1686.91 2920.14 1688.25 2918.8 1689.58 2917.47C1688.58 2915.14 1687.57 2912.81 1686.57 2910.48C1686.9 2909.47 1687.24 2908.46 1687.58 2907.44C1688.26 2906.11 1688.93 2904.79 1689.6 2903.46C1691.07 2901.2 1692.63 2899.2 1695.62 2901.45C1695.95 2901.77 1696.28 2902.1 1696.62 2902.44C1700.94 2904.95 1696.18 2905.2 1695.6 2906.48L1693.58 2910.48C1693.58 2911.14 1693.57 2911.81 1693.56 2912.47C1693.84 2917.44 1697.64 2916.2 1700.59 2916.45C1701.26 2916.13 1701.93 2915.81 1702.6 2915.49C1707.6 2913.15 1712.61 2910.81 1717.61 2908.48C1718.28 2908.15 1718.94 2907.82 1719.61 2907.49C1723.62 2906.15 1727.62 2904.81 1731.62 2903.47C1732.62 2903.14 1733.62 2902.81 1734.62 2902.49C1741.29 2900.8 1747.95 2899.12 1754.62 2897.44L1756.63 2896.48C1757.3 2896.47 1757.96 2896.45 1758.62 2896.44C1759.29 2896.12 1759.96 2895.8 1760.63 2895.48L1762.62 2895.44C1763.29 2895.12 1763.96 2894.8 1764.63 2894.48C1774.51 2891.93 1784.34 2889.31 1791.66 2881.45C1795.24 2881.15 1795.48 2880.89 1794.63 2878.44C1795.97 2877.11 1797.3 2875.77 1798.63 2874.44C1799.97 2873.44 1801.3 2872.43 1802.64 2871.43L1805.64 2869.41C1813.97 2866.08 1822.3 2862.74 1830.63 2859.41C1832.3 2858.41 1833.98 2857.41 1835.66 2856.41C1836.66 2855.75 1837.66 2855.08 1838.66 2854.42C1839.33 2853.75 1840 2853.09 1840.67 2852.43C1841.01 2851.43 1841.35 2850.44 1841.69 2849.44C1843.67 2847.76 1845.67 2846.09 1847.65 2844.42C1847.99 2843.74 1848.32 2843.07 1848.65 2842.41C1848.99 2841.08 1849.34 2839.75 1849.69 2838.42C1850.68 2837.43 1851.68 2836.43 1852.67 2835.43L1854.66 2835.39C1855.33 2835.07 1856 2834.75 1856.67 2834.43C1858.68 2831.09 1860.68 2827.75 1862.69 2824.41C1865.02 2822.08 1867.35 2819.75 1869.68 2817.43C1875.01 2815.41 1880.33 2813.4 1885.67 2811.4C1887.34 2809.74 1889.02 2808.08 1890.7 2806.42C1895 2802.28 1899.38 2798.22 1903.54 2793.95C1904.58 2792.88 1905.57 2791.1 1905.5 2789.71C1905.01 2780.98 1906.55 2778.87 1914.98 2777.38C1920.52 2776.39 1926.25 2775.9 1931.51 2774.08C1937.34 2772.07 1944.15 2770.06 1947.97 2765.77C1953.22 2759.87 1958.49 2754.47 1965.06 2750.07C1970.41 2746.5 1976.58 2743.03 1979.97 2737.9C1984.79 2730.6 1990.99 2725.87 1998.13 2721.46C2003.25 2718.31 2009.81 2714.87 2011.87 2709.94C2015.67 2700.83 2022.38 2696.23 2029.79 2690.91C2034.86 2687.27 2038.97 2682.31 2043.13 2677.42L2044.04 2676.89L2046.24 2673.89C2046.73 2673.33 2047.22 2672.75 2047.73 2672.21C2047.66 2672.19 2047.59 2672.17 2047.52 2672.15L2050.22 2668.46L2050.32 2666.34C2050.66 2665.23 2050.98 2664.11 2051.39 2663.03C2053.41 2657.68 2054.62 2652.4 2051.3 2647.51L2051.49 2643.8C2052.18 2642.75 2052.89 2641.65 2053.58 2640.69C2055.69 2637.77 2057.16 2633.46 2062.25 2636.79C2062.77 2637.13 2064.3 2635.93 2065.84 2635.22C2062.98 2633.85 2060.88 2632.85 2057.78 2631.37C2064.89 2626.89 2065.67 2622.25 2061.15 2616.16C2059.52 2613.96 2062.04 2611.47 2065.04 2611.35C2066.47 2611.29 2068.04 2611.7 2069.35 2612.32C2072.88 2613.98 2074.37 2612.66 2075.4 2609.19C2076.57 2605.26 2077.54 2600.85 2080.02 2597.81C2088.26 2587.68 2090.67 2577.41 2083.15 2565.92C2080.88 2562.46 2081.83 2559.17 2084.27 2556.34C2086.21 2554.09 2088.4 2551.95 2090.84 2550.28C2093.76 2548.29 2095.31 2545.96 2094.81 2542.4C2094.35 2539.15 2095.7 2536.99 2098.71 2535.71C2100.06 2535.14 2101.28 2534.28 2102.65 2533.5C2099.47 2525.06 2105.64 2520.52 2109.82 2515.18C2112.7 2515.38 2114.02 2514.04 2113.81 2511.17C2114.15 2509.84 2114.49 2508.5 2114.84 2507.17C2115.35 2506.92 2115.87 2506.66 2116.39 2506.4L2114.84 2505.18C2112.7 2500.88 2114.3 2497.89 2119.63 2496.19C2118.71 2490.87 2117.78 2485.52 2116.85 2480.16C2117.16 2479.15 2117.47 2478.15 2117.79 2477.14C2119.14 2472.81 2120.48 2468.48 2121.83 2464.15C2125.64 2463.95 2127.64 2461.96 2127.82 2458.14C2128.53 2456.41 2129.24 2454.69 2129.47 2454.13C2126.37 2451.51 2124.13 2449.55 2121.82 2447.69C2120.69 2446.78 2119.46 2445.35 2118.24 2445.31C2112.66 2445.11 2111.09 2442.11 2111.84 2437.12C2113.16 2436.13 2114.49 2435.13 2115.81 2434.14L2127.82 2440.13L2129.1 2441.62C2129.34 2440.78 2129.57 2439.93 2129.82 2439.1C2129.92 2437.13 2129.45 2433.74 2130.21 2433.44C2134.87 2431.6 2132.02 2427.86 2132.8 2425.13C2132.49 2424.46 2132.17 2423.78 2131.86 2423.11L2131.8 2419.12C2131.82 2418.12 2131.83 2417.11 2131.84 2416.11C2138.22 2405.11 2144.31 2394 2145.86 2381.07C2146.52 2378.4 2147.19 2375.73 2147.84 2373.06C2152.07 2369.98 2155.46 2366.26 2153.73 2360.65C2152.68 2357.27 2150.51 2354.25 2148.84 2351.07C2149.79 2347.29 2151.67 2343.42 2147.88 2340.05C2148.96 2339.38 2149.97 2338.45 2151.16 2338.1C2153 2337.54 2154.95 2337.38 2156.86 2337.04H2159.86V2139.89C2158.2 2139.55 2156.52 2139.22 2154.86 2138.89L2154.81 2138.81ZM961.768 572.344C960.769 571.666 959.769 570.995 958.763 570.318C959.762 570.988 960.762 571.666 961.768 572.344C962.52 574.148 963.399 575.825 964.398 577.362C963.392 575.825 962.526 574.155 961.768 572.344ZM1285.96 668.424C1286.96 668.095 1287.96 667.766 1288.96 667.438L1292.97 667.418C1291.63 667.418 1290.3 667.431 1288.96 667.438L1285.96 668.424ZM1460.06 876.544C1460.48 875.947 1460.91 875.35 1461.33 874.76C1460.91 875.357 1460.48 875.954 1460.06 876.551V876.544ZM1300.98 660.387C1300.31 662.735 1299.62 665.09 1298.95 667.438C1299.63 665.09 1300.3 662.735 1300.98 660.387ZM1268.96 648.379L1270.96 649.392C1271.95 650.056 1272.96 650.72 1273.96 651.384C1277.3 652.39 1280.62 653.403 1283.96 654.41C1285.96 654.416 1287.97 654.43 1289.97 654.437C1287.97 654.752 1285.97 655.067 1283.96 655.389C1285.97 655.074 1287.97 654.752 1289.97 654.437C1287.97 654.43 1285.96 654.416 1283.96 654.41C1280.62 653.403 1277.3 652.39 1273.96 651.384C1272.96 650.72 1271.95 650.056 1270.96 649.392C1270.29 649.056 1269.63 648.714 1268.96 648.379ZM1257.93 660.441C1261.93 663.768 1265.94 667.096 1269.95 670.423C1265.94 667.096 1261.94 663.761 1257.93 660.441ZM1234.91 649.425C1235.91 650.089 1236.92 650.753 1237.92 651.411C1236.92 650.747 1235.91 650.083 1234.91 649.425L1227.92 645.407C1230.25 646.748 1232.59 648.083 1234.91 649.425ZM1206.92 617.358L1208.92 618.351C1208.25 618.022 1207.58 617.687 1206.92 617.358ZM1153.86 627.347C1154.53 627.032 1155.2 626.71 1155.88 626.395C1160.54 625.382 1165.21 624.369 1169.87 623.349C1165.21 624.362 1160.54 625.375 1155.88 626.395C1155.21 626.71 1154.54 627.032 1153.86 627.347ZM1080.82 509.289C1079.98 509.296 1079.23 509.202 1078.6 508.994C1079.23 509.196 1079.97 509.296 1080.82 509.289ZM831.246 1288.28L830.381 1289.12C830.166 1288.77 829.938 1288.46 829.757 1288.06C830.254 1288.13 830.75 1288.21 831.246 1288.28ZM783.667 2149.51V2149.57C783.667 2149.57 783.613 2149.54 783.586 2149.52C783.613 2149.52 783.64 2149.51 783.667 2149.51ZM1287.57 2498.02C1289.04 2498.39 1290.51 2498.75 1291.98 2499.11L1291.46 2499.62C1290.42 2499.33 1289.38 2499.02 1288.33 2498.73C1287.98 2498.61 1287.62 2498.48 1287.26 2498.36C1287.36 2498.25 1287.47 2498.13 1287.57 2498.02Z" fill="#E2F2FC"/>
<path d="M704.624 1453.84C702.733 1453.92 700.145 1457.3 699.375 1459.68C697.977 1464.01 697.394 1468.67 697.035 1473.24C696.556 1479.25 694.702 1486.13 696.826 1491.2C702.621 1504.99 705.963 1519.2 708.378 1533.81C709.088 1538.09 709.088 1543.23 714.801 1545.38C715.257 1544.28 715.676 1543.31 716.057 1542.32C720.08 1531.95 716.185 1522.02 714.45 1511.94C712.551 1500.9 710.479 1489.87 709.335 1478.75C708.722 1472.77 709.851 1466.61 710.292 1460.55C710.599 1456.34 707.989 1453.71 704.617 1453.85L704.624 1453.84Z" fill="#1EA0D9"/>
<path d="M872.732 874.662C870.339 872.86 868.552 869.705 867.468 866.804C864.627 859.177 859.28 858.25 854.413 860.732C849.814 863.065 846.629 867.567 846.27 873.279C845.559 873.929 844.161 874.774 844.281 875.201C844.55 876.158 845.559 876.905 846.27 877.743C848.124 884.195 852.91 882.775 857.03 881.22C861 879.724 863.662 880.405 866.189 883.635C868.283 886.311 870.691 888.734 872.964 891.269C880.793 883.956 880.419 880.457 872.732 874.662Z" fill="#1EA0D9"/>
<path d="M702.149 596.924C702.882 598.516 705.215 600.842 706.194 600.572C709.185 599.743 709.813 597.238 708.071 594.441C709.185 592.206 710.299 589.977 711.406 587.742C713.268 585.514 715.13 583.286 716.992 581.065C718.48 579.958 719.968 578.844 721.448 577.738C723.31 575.502 725.172 573.266 727.034 571.023C727.475 570.732 727.924 570.432 728.365 570.141C729.03 569.7 729.703 569.251 730.369 568.81C730.72 568.705 731.094 568.645 731.453 568.556C731.812 568.466 732.156 568.354 732.432 568.159C736.552 565.184 739.955 550.117 737.592 545.624C735.678 541.997 731.924 541.152 729.808 544.629C727.961 547.665 727.871 551.77 727.004 555.404C725.95 556.877 724.551 558.215 723.938 559.852C723.146 561.968 722.988 564.324 722.555 566.574C713.425 565.954 705.873 569.655 699.592 575.779C697.879 577.446 696.675 580.968 697.139 583.256C698.096 587.966 700.13 592.505 702.156 596.916L702.149 596.924Z" fill="#1EA0D9"/>
<path d="M700.728 647.556C702.365 647.967 705.857 645.888 706.538 644.139C707.817 640.894 707.645 637.08 708.078 633.499C707.719 632.377 707.353 631.256 706.994 630.142C706.299 627.3 705.805 624.384 704.855 621.625C703.472 617.603 699.771 616.967 696.675 618.186C694.791 618.926 692.652 622.119 692.712 624.145C692.892 630.239 693.669 636.407 695.12 642.322C695.651 644.497 698.492 647.002 700.735 647.563L700.728 647.556Z" fill="#1EA0D9"/>
<path d="M711.074 1552.93C709.376 1553.3 707.193 1556.39 707.111 1558.33C706.722 1567.45 713.167 1573.43 717.467 1580.38L720.039 1580.05C720.039 1577.48 720.368 1574.86 719.972 1572.35C719.187 1567.45 717.714 1562.66 717.063 1557.76C716.547 1553.88 714.012 1552.28 711.074 1552.93Z" fill="#1EA0D9"/>
<path d="M887.745 741.731C892.516 742 893.234 739.174 893.204 735.45C893.159 729.461 889.667 726.036 883.603 726.066C877.494 725.969 877.92 726.246 877.195 734.119C876.851 737.813 882.481 741.432 887.745 741.731Z" fill="#1EA0D9"/>
<path d="M1969.25 3139.85C1966.66 3142.45 1964.06 3145.04 1961.46 3147.64C1966.18 3147.17 1968.77 3144.56 1969.25 3139.85Z" fill="#1EA0D9"/>
<path d="M1992.7 3127.6C1990.83 3129.45 1988.96 3131.3 1987.09 3133.15C1990.88 3133.24 1992.74 3131.38 1992.7 3127.6Z" fill="#1EA0D9"/>
<path d="M2247.07 2720.12L2247.68 2718.23C2246.57 2717.9 2245.46 2717.57 2244.35 2717.25C2244.16 2717.81 2243.98 2718.39 2243.79 2718.96C2244.88 2719.35 2245.98 2719.73 2247.07 2720.12Z" fill="#1EA0D9"/>
<path d="M866.416 3224.33C865.608 3225.03 864.823 3225.73 864.016 3226.43C864.016 3226.43 864.861 3225.7 866.416 3224.33Z" fill="#1EA0D9"/>
<path d="M1607.99 2152.76C1607.61 2154.28 1607.21 2155.81 1606.82 2157.33C1607.21 2155.8 1607.61 2154.28 1607.99 2152.76Z" fill="#1EA0D9"/>
<path d="M14.2109 4335C14.2109 4307.53 20.3443 4283 32.6109 4261.4C45.1443 4239.53 62.0776 4222.6 83.4109 4210.6C105.011 4198.33 129.144 4192.2 155.811 4192.2C187.011 4192.2 214.344 4200.2 237.811 4216.2C261.278 4232.2 277.678 4254.33 287.011 4282.6H222.611C216.211 4269.27 207.144 4259.27 195.411 4252.6C183.944 4245.93 170.611 4242.6 155.411 4242.6C139.144 4242.6 124.611 4246.47 111.811 4254.2C99.2776 4261.67 89.4109 4272.33 82.2109 4286.2C75.2776 4300.07 71.8109 4316.33 71.8109 4335C71.8109 4353.4 75.2776 4369.67 82.2109 4383.8C89.4109 4397.67 99.2776 4408.47 111.811 4416.2C124.611 4423.67 139.144 4427.4 155.411 4427.4C170.611 4427.4 183.944 4424.07 195.411 4417.4C207.144 4410.47 216.211 4400.33 222.611 4387H287.011C277.678 4415.53 261.278 4437.8 237.811 4453.8C214.611 4469.53 187.278 4477.4 155.811 4477.4C129.144 4477.4 105.011 4471.4 83.4109 4459.4C62.0776 4447.13 45.1443 4430.2 32.6109 4408.6C20.3443 4387 14.2109 4362.47 14.2109 4335ZM540.842 4359.4C540.842 4367.4 540.309 4374.6 539.242 4381H377.242C378.576 4397 384.176 4409.53 394.042 4418.6C403.909 4427.67 416.042 4432.2 430.442 4432.2C451.242 4432.2 466.042 4423.27 474.842 4405.4H535.242C528.842 4426.73 516.576 4444.33 498.442 4458.2C480.309 4471.8 458.042 4478.6 431.642 4478.6C410.309 4478.6 391.109 4473.93 374.042 4464.6C357.242 4455 344.042 4441.53 334.442 4424.2C325.109 4406.87 320.442 4386.87 320.442 4364.2C320.442 4341.27 325.109 4321.13 334.442 4303.8C343.776 4286.47 356.842 4273.13 373.642 4263.8C390.442 4254.47 409.776 4249.8 431.642 4249.8C452.709 4249.8 471.509 4254.33 488.042 4263.4C504.842 4272.47 517.776 4285.4 526.842 4302.2C536.176 4318.73 540.842 4337.8 540.842 4359.4ZM482.842 4343.4C482.576 4329 477.376 4317.53 467.242 4309C457.109 4300.2 444.709 4295.8 430.042 4295.8C416.176 4295.8 404.442 4300.07 394.842 4308.6C385.509 4316.87 379.776 4328.47 377.642 4343.4H482.842ZM793.717 4253.4L656.517 4579.8H596.917L644.917 4469.4L556.117 4253.4H618.917L676.117 4408.2L734.117 4253.4H793.717ZM879.905 4179V4475H823.905V4179H879.905ZM1033.63 4478.6C1012.3 4478.6 993.099 4473.93 976.033 4464.6C958.966 4455 945.499 4441.53 935.633 4424.2C926.033 4406.87 921.233 4386.87 921.233 4364.2C921.233 4341.53 926.166 4321.53 936.033 4304.2C946.166 4286.87 959.899 4273.53 977.233 4264.2C994.566 4254.6 1013.9 4249.8 1035.23 4249.8C1056.57 4249.8 1075.9 4254.6 1093.23 4264.2C1110.57 4273.53 1124.17 4286.87 1134.03 4304.2C1144.17 4321.53 1149.23 4341.53 1149.23 4364.2C1149.23 4386.87 1144.03 4406.87 1133.63 4424.2C1123.5 4441.53 1109.63 4455 1092.03 4464.6C1074.7 4473.93 1055.23 4478.6 1033.63 4478.6ZM1033.63 4429.8C1043.77 4429.8 1053.23 4427.4 1062.03 4422.6C1071.1 4417.53 1078.3 4410.07 1083.63 4400.2C1088.97 4390.33 1091.63 4378.33 1091.63 4364.2C1091.63 4343.13 1086.03 4327 1074.83 4315.8C1063.9 4304.33 1050.43 4298.6 1034.43 4298.6C1018.43 4298.6 1004.97 4304.33 994.033 4315.8C983.366 4327 978.033 4343.13 978.033 4364.2C978.033 4385.27 983.233 4401.53 993.633 4413C1004.3 4424.2 1017.63 4429.8 1033.63 4429.8ZM1313.11 4250.2C1339.51 4250.2 1360.84 4258.6 1377.11 4275.4C1393.38 4291.93 1401.51 4315.13 1401.51 4345V4475H1345.51V4352.6C1345.51 4335 1341.11 4321.53 1332.31 4312.2C1323.51 4302.6 1311.51 4297.8 1296.31 4297.8C1280.84 4297.8 1268.58 4302.6 1259.51 4312.2C1250.71 4321.53 1246.31 4335 1246.31 4352.6V4475H1190.31V4253.4H1246.31V4281C1253.78 4271.4 1263.24 4263.93 1274.71 4258.6C1286.44 4253 1299.24 4250.2 1313.11 4250.2ZM1539.56 4478.6C1521.43 4478.6 1505.16 4475.4 1490.76 4469C1476.36 4462.33 1464.9 4453.4 1456.36 4442.2C1448.1 4431 1443.56 4418.6 1442.76 4405H1499.16C1500.23 4413.53 1504.36 4420.6 1511.56 4426.2C1519.03 4431.8 1528.23 4434.6 1539.16 4434.6C1549.83 4434.6 1558.1 4432.47 1563.96 4428.2C1570.1 4423.93 1573.16 4418.47 1573.16 4411.8C1573.16 4404.6 1569.43 4399.27 1561.96 4395.8C1554.76 4392.07 1543.16 4388.07 1527.16 4383.8C1510.63 4379.8 1497.03 4375.67 1486.36 4371.4C1475.96 4367.13 1466.9 4360.6 1459.16 4351.8C1451.7 4343 1447.96 4331.13 1447.96 4316.2C1447.96 4303.93 1451.43 4292.73 1458.36 4282.6C1465.56 4272.47 1475.7 4264.47 1488.76 4258.6C1502.1 4252.73 1517.7 4249.8 1535.56 4249.8C1561.96 4249.8 1583.03 4256.47 1598.76 4269.8C1614.5 4282.87 1623.16 4300.6 1624.76 4323H1571.16C1570.36 4314.2 1566.63 4307.27 1559.96 4302.2C1553.56 4296.87 1544.9 4294.2 1533.96 4294.2C1523.83 4294.2 1515.96 4296.07 1510.36 4299.8C1505.03 4303.53 1502.36 4308.73 1502.36 4315.4C1502.36 4322.87 1506.1 4328.6 1513.56 4332.6C1521.03 4336.33 1532.63 4340.2 1548.36 4344.2C1564.36 4348.2 1577.56 4352.33 1587.96 4356.6C1598.36 4360.87 1607.3 4367.53 1614.76 4376.6C1622.5 4385.4 1626.5 4397.13 1626.76 4411.8C1626.76 4424.6 1623.16 4436.07 1615.96 4446.2C1609.03 4456.33 1598.9 4464.33 1585.56 4470.2C1572.5 4475.8 1557.16 4478.6 1539.56 4478.6ZM1658.33 4364.2C1658.33 4341.27 1663 4321.27 1672.33 4304.2C1681.67 4286.87 1694.6 4273.53 1711.13 4264.2C1727.67 4254.6 1746.6 4249.8 1767.93 4249.8C1795.4 4249.8 1818.07 4256.73 1835.93 4270.6C1854.07 4284.2 1866.2 4303.4 1872.33 4328.2H1811.93C1808.73 4318.6 1803.27 4311.13 1795.53 4305.8C1788.07 4300.2 1778.73 4297.4 1767.53 4297.4C1751.53 4297.4 1738.87 4303.27 1729.53 4315C1720.2 4326.47 1715.53 4342.87 1715.53 4364.2C1715.53 4385.27 1720.2 4401.67 1729.53 4413.4C1738.87 4424.87 1751.53 4430.6 1767.53 4430.6C1790.2 4430.6 1805 4420.47 1811.93 4400.2H1872.33C1866.2 4424.2 1854.07 4443.27 1835.93 4457.4C1817.8 4471.53 1795.13 4478.6 1767.93 4478.6C1746.6 4478.6 1727.67 4473.93 1711.13 4464.6C1694.6 4455 1681.67 4441.67 1672.33 4424.6C1663 4407.27 1658.33 4387.13 1658.33 4364.2ZM1898.96 4363.4C1898.96 4341 1903.36 4321.13 1912.16 4303.8C1921.22 4286.47 1933.36 4273.13 1948.56 4263.8C1964.02 4254.47 1981.22 4249.8 2000.16 4249.8C2016.69 4249.8 2031.09 4253.13 2043.36 4259.8C2055.89 4266.47 2065.89 4274.87 2073.36 4285V4253.4H2129.76V4475H2073.36V4442.6C2066.16 4453 2056.16 4461.67 2043.36 4468.6C2030.82 4475.27 2016.29 4478.6 1999.76 4478.6C1981.09 4478.6 1964.02 4473.8 1948.56 4464.2C1933.36 4454.6 1921.22 4441.13 1912.16 4423.8C1903.36 4406.2 1898.96 4386.07 1898.96 4363.4ZM2073.36 4364.2C2073.36 4350.6 2070.69 4339 2065.36 4329.4C2060.02 4319.53 2052.82 4312.07 2043.76 4307C2034.69 4301.67 2024.96 4299 2014.56 4299C2004.16 4299 1994.56 4301.53 1985.76 4306.6C1976.96 4311.67 1969.76 4319.13 1964.16 4329C1958.82 4338.6 1956.16 4350.07 1956.16 4363.4C1956.16 4376.73 1958.82 4388.47 1964.16 4398.6C1969.76 4408.47 1976.96 4416.07 1985.76 4421.4C1994.82 4426.73 2004.42 4429.4 2014.56 4429.4C2024.96 4429.4 2034.69 4426.87 2043.76 4421.8C2052.82 4416.47 2060.02 4409 2065.36 4399.4C2070.69 4389.53 2073.36 4377.8 2073.36 4364.2ZM2240.45 4285.4C2247.65 4275.27 2257.52 4266.87 2270.05 4260.2C2282.85 4253.27 2297.38 4249.8 2313.65 4249.8C2332.58 4249.8 2349.65 4254.47 2364.85 4263.8C2380.32 4273.13 2392.45 4286.47 2401.25 4303.8C2410.32 4320.87 2414.85 4340.73 2414.85 4363.4C2414.85 4386.07 2410.32 4406.2 2401.25 4423.8C2392.45 4441.13 2380.32 4454.6 2364.85 4464.2C2349.65 4473.8 2332.58 4478.6 2313.65 4478.6C2297.38 4478.6 2282.98 4475.27 2270.45 4468.6C2258.18 4461.93 2248.18 4453.53 2240.45 4443.4V4580.6H2184.45V4253.4H2240.45V4285.4ZM2357.65 4363.4C2357.65 4350.07 2354.85 4338.6 2349.25 4329C2343.92 4319.13 2336.72 4311.67 2327.65 4306.6C2318.85 4301.53 2309.25 4299 2298.85 4299C2288.72 4299 2279.12 4301.67 2270.05 4307C2261.25 4312.07 2254.05 4319.53 2248.45 4329.4C2243.12 4339.27 2240.45 4350.87 2240.45 4364.2C2240.45 4377.53 2243.12 4389.13 2248.45 4399C2254.05 4408.87 2261.25 4416.47 2270.05 4421.8C2279.12 4426.87 2288.72 4429.4 2298.85 4429.4C2309.25 4429.4 2318.85 4426.73 2327.65 4421.4C2336.72 4416.07 2343.92 4408.47 2349.25 4398.6C2354.85 4388.73 2357.65 4377 2357.65 4363.4ZM2661.55 4359.4C2661.55 4367.4 2661.01 4374.6 2659.95 4381H2497.95C2499.28 4397 2504.88 4409.53 2514.75 4418.6C2524.61 4427.67 2536.75 4432.2 2551.15 4432.2C2571.95 4432.2 2586.75 4423.27 2595.55 4405.4H2655.95C2649.55 4426.73 2637.28 4444.33 2619.15 4458.2C2601.01 4471.8 2578.75 4478.6 2552.35 4478.6C2531.01 4478.6 2511.81 4473.93 2494.75 4464.6C2477.95 4455 2464.75 4441.53 2455.15 4424.2C2445.81 4406.87 2441.15 4386.87 2441.15 4364.2C2441.15 4341.27 2445.81 4321.13 2455.15 4303.8C2464.48 4286.47 2477.55 4273.13 2494.35 4263.8C2511.15 4254.47 2530.48 4249.8 2552.35 4249.8C2573.41 4249.8 2592.21 4254.33 2608.75 4263.4C2625.55 4272.47 2638.48 4285.4 2647.55 4302.2C2656.88 4318.73 2661.55 4337.8 2661.55 4359.4ZM2603.55 4343.4C2603.28 4329 2598.08 4317.53 2587.95 4309C2577.81 4300.2 2565.41 4295.8 2550.75 4295.8C2536.88 4295.8 2525.15 4300.07 2515.55 4308.6C2506.21 4316.87 2500.48 4328.47 2498.35 4343.4H2603.55ZM2787.22 4478.6C2769.09 4478.6 2752.82 4475.4 2738.42 4469C2724.02 4462.33 2712.55 4453.4 2704.02 4442.2C2695.75 4431 2691.22 4418.6 2690.42 4405H2746.82C2747.89 4413.53 2752.02 4420.6 2759.22 4426.2C2766.69 4431.8 2775.89 4434.6 2786.82 4434.6C2797.49 4434.6 2805.75 4432.47 2811.62 4428.2C2817.75 4423.93 2820.82 4418.47 2820.82 4411.8C2820.82 4404.6 2817.09 4399.27 2809.62 4395.8C2802.42 4392.07 2790.82 4388.07 2774.82 4383.8C2758.29 4379.8 2744.69 4375.67 2734.02 4371.4C2723.62 4367.13 2714.55 4360.6 2706.82 4351.8C2699.35 4343 2695.62 4331.13 2695.62 4316.2C2695.62 4303.93 2699.09 4292.73 2706.02 4282.6C2713.22 4272.47 2723.35 4264.47 2736.42 4258.6C2749.75 4252.73 2765.35 4249.8 2783.22 4249.8C2809.62 4249.8 2830.69 4256.47 2846.42 4269.8C2862.15 4282.87 2870.82 4300.6 2872.42 4323H2818.82C2818.02 4314.2 2814.29 4307.27 2807.62 4302.2C2801.22 4296.87 2792.55 4294.2 2781.62 4294.2C2771.49 4294.2 2763.62 4296.07 2758.02 4299.8C2752.69 4303.53 2750.02 4308.73 2750.02 4315.4C2750.02 4322.87 2753.75 4328.6 2761.22 4332.6C2768.69 4336.33 2780.29 4340.2 2796.02 4344.2C2812.02 4348.2 2825.22 4352.33 2835.62 4356.6C2846.02 4360.87 2854.95 4367.53 2862.42 4376.6C2870.15 4385.4 2874.15 4397.13 2874.42 4411.8C2874.42 4424.6 2870.82 4436.07 2863.62 4446.2C2856.69 4456.33 2846.55 4464.33 2833.22 4470.2C2820.15 4475.8 2804.82 4478.6 2787.22 4478.6Z" fill="#0F6795"/>
</svg>
